#!OML:ASF H:\Dans Jumps\Project 1\Capture day 1\Session 1\subject.ASF
:FULLY-SPECIFIED
:DEGREES
626
root 0.426425 17.7399 3.88981 7.60397 -1.24914 -1.76113
lowerback -4.87224 0.0386341 0.210627
upperback 0.722046 -0.00868926 1.37777
thorax 3.47699 -0.0139554 1.30098
lowerneck -13.2035 -0.460567 -2.69401
upperneck 23.2608 -0.443341 1.73978
head 9.52786 -0.249918 1.00361
rclavicle -2.78299e-015 4.77083e-015
rhumerus -27.6359 -19.2466 -77.8304
rradius 23.1231
rwrist 35.4651
rhand -21.2703 -27.6781
rfingers 7.12502
rthumb 5.11332 -57.5964
lclavicle -2.78299e-015 4.77083e-015
lhumerus -25.5693 -0.317602 87.5773
lradius 22.0329
lwrist 5.86297
lhand -25.154 -4.11917
lfingers 7.12502
lthumb 1.36281 25.8562
rfemur -12.1203 -2.72818 19.7411
rtibia 19.4227
rfoot -12.9667 1.90417
rtoes 20.2954
lfemur -10.1867 6.52422 -17.549
ltibia 16.6664
lfoot -9.30435 8.95961
ltoes 1.56486
627
root 0.426191 17.7399 3.88834 7.59902 -1.25623 -1.75979
lowerback -4.87854 0.0394626 0.208559
upperback 0.72196 -0.00747145 1.37629
thorax 3.48042 -0.0133837 1.30073
lowerneck -13.2042 -0.456218 -2.69657
upperneck 23.2661 -0.438557 1.74739
head 9.52974 -0.247097 1.00728
rclavicle -5.59082e-015 5.76476e-015
rhumerus -27.6567 -19.2533 -77.8264
rradius 23.1198
rwrist 35.4716
rhand -21.2781 -27.664
rfingers 7.12502
rthumb 5.10582 -57.5824
lclavicle -5.59082e-015 5.76476e-015
lhumerus -25.5986 -0.309341 87.5786
lradius 21.9665
lwrist 5.79795
lhand -25.1473 -4.16204
lfingers 7.12502
lthumb 1.36931 25.8133
rfemur -12.1228 -2.72731 19.7403
rtibia 19.4242
rfoot -12.9621 1.90863
rtoes 20.2964
lfemur -10.1861 6.5263 -17.5502
ltibia 16.6675
lfoot -9.29915 8.96393
ltoes 1.5722
628
root 0.425909 17.7399 3.8868 7.59449 -1.26508 -1.76035
lowerback -4.8846 0.0409036 0.208249
upperback 0.722495 -0.0055536 1.37492
thorax 3.48435 -0.012433 1.29967
lowerneck -13.2073 -0.451478 -2.69594
upperneck 23.2713 -0.432937 1.75108
head 9.53198 -0.244034 1.00917
rclavicle 1.56543e-015 -1.17283e-014
rhumerus -27.678 -19.2518 -77.8268
rradius 23.1232
rwrist 35.4646
rhand -21.283 -27.6414
rfingers 7.12502
rthumb 5.10107 -57.56
lclavicle 1.56543e-015 -1.17283e-014
lhumerus -25.6315 -0.300646 87.5791
lradius 21.9087
lwrist 5.73964
lhand -25.1586 -4.23829
lfingers 7.12502
lthumb 1.35843 25.7371
rfemur -12.125 -2.72128 19.7415
rtibia 19.4233
rfoot -12.9558 1.91088
rtoes 20.3023
lfemur -10.1876 6.52659 -17.5488
ltibia 16.6713
lfoot -9.295 8.97119
ltoes 1.57794
629
root 0.425571 17.74 3.88509 7.59164 -1.27509 -1.76155
lowerback -4.89107 0.0431254 0.208749
upperback 0.723101 -0.00263496 1.37316
thorax 3.48856 -0.0109651 1.29782
lowerneck -13.213 -0.446582 -2.6939
upperneck 23.2765 -0.426911 1.75299
head 9.53474 -0.240847 1.01025
rclavicle 1.9133e-015 -2.38542e-015
rhumerus -27.6993 -19.2429 -77.8316
rradius 23.131
rwrist 35.4454
rhand -21.2928 -27.6167
rfingers 7.12502
rthumb 5.09162 -57.5355
lclavicle 1.9133e-015 -2.38542e-015
lhumerus -25.6666 -0.295044 87.5796
lradius 21.8588
lwrist 5.68932
lhand -25.1771 -4.32039
lfingers 7.12502
lthumb 1.34052 25.6551
rfemur -12.1287 -2.71285 19.7435
rtibia 19.4204
rfoot -12.9482 1.91282
rtoes 20.301
lfemur -10.1926 6.52566 -17.5464
ltibia 16.6775
lfoot -9.2917 8.97968
ltoes 1.59006
630
root 0.42509 17.7401 3.88301 7.59224 -1.28426 -1.77413
lowerback -4.89663 0.0465378 0.219685
upperback 0.722754 0.001152 1.37437
thorax 3.49125 -0.00888246 1.29324
lowerneck -13.2204 -0.442079 -2.68662
upperneck 23.2787 -0.421002 1.74845
head 9.53674 -0.237951 1.00818
rclavicle -3.40419e-015 7.95139e-015
rhumerus -27.7189 -19.2325 -77.8383
rradius 23.1395
rwrist 35.4201
rhand -21.2908 -27.6
rfingers 7.12502
rthumb 5.09352 -57.5188
lclavicle -3.40419e-015 7.95139e-015
lhumerus -25.7025 -0.288131 87.5801
lradius 21.8141
lwrist 5.64202
lhand -25.2004 -4.41633
lfingers 7.12502
lthumb 1.31799 25.5593
rfemur -12.136 -2.69457 19.7588
rtibia 19.4153
rfoot -12.9384 1.90687
rtoes 20.3051
lfemur -10.2052 6.52239 -17.5306
ltibia 16.6875
lfoot -9.28842 8.98927
ltoes 1.60347
631
root 0.424645 17.7401 3.88086 7.59124 -1.29307 -1.78473
lowerback -4.90119 0.0503637 0.22984
upperback 0.724113 0.00557872 1.37404
thorax 3.49513 -0.0064881 1.28756
lowerneck -13.2302 -0.437856 -2.67714
upperneck 23.2799 -0.415675 1.7429
head 9.53886 -0.235229 1.00531
rclavicle 1.73937e-016 -5.36719e-015
rhumerus -27.7378 -19.2172 -77.849
rradius 23.1527
rwrist 35.3875
rhand -21.2771 -27.5905
rfingers 7.12502
rthumb 5.10677 -57.5089
lclavicle 1.73937e-016 -5.36719e-015
lhumerus -25.7394 -0.281922 87.5804
lradius 21.777
lwrist 5.59777
lhand -25.2282 -4.51196
lfingers 7.12502
lthumb 1.29115 25.4639
rfemur -12.1417 -2.67861 19.7717
rtibia 19.4102
rfoot -12.9292 1.90338
rtoes 20.3068
lfemur -10.2169 6.5203 -17.5169
ltibia 16.6989
lfoot -9.28618 8.99682
ltoes 1.61852
632
root 0.42422 17.7401 3.87854 7.58939 -1.30215 -1.79504
lowerback -4.9028 0.054408 0.239468
upperback 0.726024 0.010345 1.37391
thorax 3.49792 -0.0039357 1.28241
lowerneck -13.2398 -0.434219 -2.66894
upperneck 23.2782 -0.410834 1.73729
head 9.53992 -0.232839 1.00256
rclavicle -4.96962e-016 4.37326e-015
rhumerus -27.7538 -19.1961 -77.8621
rradius 23.1645
rwrist 35.3511
rhand -21.2622 -27.5878
rfingers 7.12502
rthumb 5.12119 -57.5059
lclavicle -4.96962e-016 4.37326e-015
lhumerus -25.775 -0.274681 87.582
lradius 21.7416
lwrist 5.55906
lhand -25.2602 -4.61409
lfingers 7.12502
lthumb 1.26028 25.3619
rfemur -12.1475 -2.66007 19.784
rtibia 19.4062
rfoot -12.9202 1.89828
rtoes 20.3134
lfemur -10.2278 6.51856 -17.5037
ltibia 16.7095
lfoot -9.28279 9.00474
ltoes 1.62584
633
root 0.423889 17.7401 3.87615 7.5844 -1.31009 -1.79919
lowerback -4.89997 0.0574046 0.242685
upperback 0.728733 0.0141778 1.3728
thorax 3.49905 -0.0019629 1.27975
lowerneck -13.2455 -0.432104 -2.66184
upperneck 23.2718 -0.407373 1.72939
head 9.53865 -0.231438 0.999003
rclavicle -3.35449e-015 2.18663e-015
rhumerus -27.7668 -19.1753 -77.8744
rradius 23.1724
rwrist 35.3212
rhand -21.2407 -27.5897
rfingers 7.12502
rthumb 5.14196 -57.5073
lclavicle -3.35449e-015 2.18663e-015
lhumerus -25.8107 -0.261874 87.5838
lradius 21.7083
lwrist 5.52127
lhand -25.2914 -4.70791
lfingers 7.12502
lthumb 1.23015 25.2683
rfemur -12.1523 -2.64643 19.7891
rtibia 19.4068
rfoot -12.9134 1.89542
rtoes 20.325
lfemur -10.2322 6.51526 -17.4973
ltibia 16.7143
lfoot -9.27711 9.01248
ltoes 1.63204
634
root 0.423696 17.74 3.87402 7.57554 -1.31608 -1.79626
lowerback -4.89574 0.0594184 0.24014
upperback 0.731509 0.0171371 1.36966
thorax 3.49947 -0.000517002 1.27817
lowerneck -13.242 -0.430682 -2.65884
upperneck 23.262 -0.404865 1.72442
head 9.53445 -0.230531 0.997007
rclavicle -1.98785e-016 -4.17448e-015
rhumerus -27.7828 -19.1566 -77.8849
rradius 23.1795
rwrist 35.3032
rhand -21.2225 -27.5919
rfingers 7.12502
rthumb 5.15948 -57.5091
lclavicle -1.98785e-016 -4.17448e-015
lhumerus -25.8483 -0.248415 87.5859
lradius 21.6737
lwrist 5.48777
lhand -25.3163 -4.78499
lfingers 7.12502
lthumb 1.2061 25.1913
rfemur -12.1533 -2.64234 19.7858
rtibia 19.4115
rfoot -12.9103 1.89849
rtoes 20.336
lfemur -10.2283 6.5148 -17.4994
ltibia 16.7138
lfoot -9.27108 9.01618
ltoes 1.63176
635
root 0.423582 17.74 3.87197 7.56552 -1.32218 -1.78761
lowerback -4.88992 0.0611924 0.231832
upperback 0.733074 0.0202041 1.36532
thorax 3.49774 0.000888048 1.27858
lowerneck -13.2338 -0.429807 -2.65549
upperneck 23.2512 -0.402911 1.71776
head 9.52905 -0.230051 0.994284
rclavicle -1.98785e-015 -2.38542e-015
rhumerus -27.798 -19.1457 -77.8913
rradius 23.1796
rwrist 35.302
rhand -21.2097 -27.5839
rfingers 7.12502
rthumb 5.17187 -57.5007
lclavicle -1.98785e-015 -2.38542e-015
lhumerus -25.8874 -0.232849 87.5879
lradius 21.6371
lwrist 5.45528
lhand -25.3368 -4.85586
lfingers 7.12502
lthumb 1.18623 25.1206
rfemur -12.155 -2.64439 19.7759
rtibia 19.4207
rfoot -12.9097 1.90501
rtoes 20.3408
lfemur -10.2196 6.51326 -17.5083
ltibia 16.7074
lfoot -9.26363 9.0206
ltoes 1.6369
636
root 0.423479 17.7399 3.86998 7.55612 -1.3267 -1.77931
lowerback -4.88504 0.0633311 0.223788
upperback 0.733528 0.0237475 1.36091
thorax 3.49538 0.00254039 1.27881
lowerneck -13.2203 -0.428823 -2.64938
upperneck 23.2397 -0.401236 1.70967
head 9.52237 -0.229631 0.990557
rclavicle -5.81445e-015 9.14409e-015
rhumerus -27.8145 -19.1435 -77.8941
rradius 23.1767
rwrist 35.3137
rhand -21.1982 -27.5699
rfingers 7.12502
rthumb 5.18294 -57.4865
lclavicle -5.81445e-015 9.14409e-015
lhumerus -25.9247 -0.218502 87.5897
lradius 21.5941
lwrist 5.42251
lhand -25.3584 -4.92994
lfingers 7.12502
lthumb 1.16538 25.0466
rfemur -12.1575 -2.6488 19.7667
rtibia 19.4301
rfoot -12.909 1.91117
rtoes 20.3415
lfemur -10.2115 6.51253 -17.5169
ltibia 16.701
lfoot -9.25676 9.02395
ltoes 1.63636
637
root 0.423342 17.7399 3.86794 7.54801 -1.33209 -1.76926
lowerback -4.88171 0.066537 0.213411
upperback 0.734579 0.0288618 1.35565
thorax 3.49447 0.00493179 1.27961
lowerneck -13.2136 -0.427059 -2.63635
upperneck 23.2318 -0.398903 1.69737
head 9.51821 -0.228755 0.984318
rclavicle -1.63997e-015 -1.94809e-014
rhumerus -27.8276 -19.1474 -77.8964
rradius 23.1701
rwrist 35.3327
rhand -21.1934 -27.5521
rfingers 7.12502
rthumb 5.1876 -57.4686
lclavicle -1.63997e-015 -1.94809e-014
lhumerus -25.9569 -0.20585 87.5908
lradius 21.5457
lwrist 5.38649
lhand -25.3829 -5.00513
lfingers 7.12502
lthumb 1.14178 24.9716
rfemur -12.1615 -2.65332 19.7557
rtibia 19.4385
rfoot -12.9071 1.91948
rtoes 20.3397
lfemur -10.2069 6.51199 -17.5278
ltibia 16.697
lfoot -9.25004 9.02777
ltoes 1.64032
638
root 0.422972 17.74 3.86553 7.54447 -1.33683 -1.77266
lowerback -4.87821 0.0709266 0.213206
upperback 0.733048 0.0348186 1.35471
thorax 3.49079 0.00791364 1.2792
lowerneck -13.2086 -0.426258 -2.62497
upperneck 23.2256 -0.397623 1.68562
head 9.51506 -0.228451 0.978434
rclavicle -4.52235e-015 0
rhumerus -27.839 -19.1621 -77.8951
rradius 23.1574
rwrist 35.3622
rhand -21.187 -27.5302
rfingers 7.12502
rthumb 5.19383 -57.4466
lclavicle -4.52235e-015 0
lhumerus -25.9862 -0.187823 87.5902
lradius 21.4912
lwrist 5.34026
lhand -25.4142 -5.09941
lfingers 7.12502
lthumb 1.1115 24.8774
rfemur -12.1706 -2.64244 19.7608
rtibia 19.4439
rfoot -12.9015 1.9143
rtoes 20.3404
lfemur -10.2122 6.51148 -17.523
ltibia 16.6986
lfoot -9.24345 9.03221
ltoes 1.6398
639
root 0.422591 17.74 3.86301 7.54108 -1.34133 -1.77842
lowerback -4.87358 0.0757383 0.214639
upperback 0.731339 0.0412252 1.35456
thorax 3.48629 0.0111463 1.27872
lowerneck -13.2051 -0.426532 -2.61588
upperneck 23.2186 -0.397601 1.67525
head 9.51188 -0.228768 0.973261
rclavicle 3.47873e-016 -9.54166e-015
rhumerus -27.8499 -19.1795 -77.8932
rradius 23.1447
rwrist 35.3916
rhand -21.1748 -27.51
rfingers 7.12502
rthumb 5.20553 -57.4261
lclavicle 3.47873e-016 -9.54166e-015
lhumerus -26.0111 -0.167314 87.5885
lradius 21.4314
lwrist 5.28769
lhand -25.4471 -5.19746
lfingers 7.12502
lthumb 1.07971 24.7796
rfemur -12.1792 -2.6309 19.7685
rtibia 19.4474
rfoot -12.8945 1.9095
rtoes 20.3448
lfemur -10.2209 6.51165 -17.5156
ltibia 16.7049
lfoot -9.23807 9.03626
ltoes 1.63865
